<svg width="22" height="22" viewBox="0 0 22 22" fill="none" xmlns="http://www.w3.org/2000/svg">
<path d="M18.68 0.919983H3.32C1.9952 0.919983 0.919998 1.99518 0.919998 3.31998V18.68C0.919998 20.0048 1.9952 21.08 3.32 21.08H18.68C20.0048 21.08 21.08 20.0048 21.08 18.68V3.31998C21.08 1.99518 20.0048 0.919983 18.68 0.919983ZM16.76 8.11998H15.8C14.7728 8.11998 14.36 8.35998 14.36 9.07998V10.52H16.76L16.28 12.92H14.36V20.12H11.96V12.92H10.04V10.52H11.96V9.07998C11.96 7.15998 12.92 5.71998 14.84 5.71998C16.232 5.71998 16.76 6.19998 16.76 6.19998V8.11998Z" fill="#06335B"/>
</svg>
