<svg width="135" height="34" viewBox="0 0 135 34" fill="none" xmlns="http://www.w3.org/2000/svg">
<path d="M74.9412 0.00184269C74.3855 -0.0189454 73.8366 0.136547 73.365 0.448436C72.8933 0.760326 72.5204 1.21435 72.294 1.75226C72.0677 2.29018 71.9983 2.88747 72.0947 3.46748C72.191 4.04748 72.4488 4.58373 72.835 5.00748C73.2211 5.43124 73.718 5.72316 74.2618 5.84576C74.8057 5.96837 75.3717 5.91605 75.8873 5.69558C76.4029 5.4751 76.8446 5.09654 77.1556 4.60838C77.4667 4.12022 77.6329 3.54478 77.633 2.95586C77.6548 2.57067 77.6008 2.18487 77.4745 1.8229C77.3483 1.46093 77.1524 1.13067 76.8994 0.853007C76.6464 0.575342 76.3417 0.356301 76.0047 0.209784C75.6676 0.0632665 75.3055 -0.00750795 74.9412 0.00184269Z" fill="#57CC99"/>
<path d="M101.048 8.2111V26.6877H96.0558V12.7091H87.9838V20.3267C87.9838 21.867 88.6002 22.4904 89.6698 22.4573C90.4846 22.4045 91.2799 22.1703 92.0036 21.77L93.0464 25.6507C91.6597 26.4795 90.0952 26.9168 88.5029 26.9208C85.3882 26.9208 83.0219 25.0321 83.0219 21.2202V12.6747H77.439V26.6791H72.4563V8.20129H77.4506V9.02481H83.0277V3.95123H87.9838V9.03463H96.058V8.2111H101.048Z" fill="#57CC99"/>
<path d="M98.5533 0.00184269C97.9976 -0.0189454 97.4487 0.136547 96.9771 0.448436C96.5054 0.760326 96.1325 1.21435 95.9062 1.75226C95.6798 2.29018 95.6103 2.88747 95.7067 3.46748C95.8031 4.04748 96.0609 4.58373 96.4471 5.00748C96.8332 5.43124 97.33 5.72316 97.8739 5.84576C98.4177 5.96837 98.9838 5.91605 99.4994 5.69558C100.015 5.4751 100.457 5.09654 100.768 4.60838C101.079 4.12022 101.245 3.54478 101.245 2.95586C101.267 2.57062 101.213 2.18472 101.087 1.82267C100.961 1.46062 100.765 1.13034 100.512 0.852633C100.259 0.574928 99.9541 0.355862 99.6169 0.209409C99.2798 0.0629566 98.9176 -0.00769413 98.5533 0.00184269Z" fill="#57CC99"/>
<path d="M17.3503 21.6742V26.6815H12.356V1.20331H17.3503V15.2175L23.7374 8.24416H29.4131L23.0271 15.3537L29.7039 26.679H23.8035L19.5879 19.173L17.3503 21.6742Z" fill="#06335B"/>
<path d="M41.6055 24.5228C40.9267 25.3406 40.0799 25.9827 39.13 26.3995C38.1802 26.8163 37.1528 26.9967 36.1268 26.927C32.3979 26.927 30.1302 24.5228 30.1302 21.1589C30.1302 17.6943 32.4929 15.6288 36.7757 15.5944H41.5753V15.2496C41.5753 13.2859 40.3436 12.1703 37.9403 12.1703C36.1116 12.2442 34.3288 12.7983 32.7525 13.783L31.2055 10.1318C33.6185 8.73503 36.3249 8.00485 39.0747 8.00862C43.7457 8.00862 46.4364 10.4804 46.4688 14.6359L46.5013 26.6901H41.6031L41.6055 24.5228ZM41.573 20.3673V18.719H37.6494C35.7363 18.719 34.7966 19.3327 34.7966 20.814C34.7966 22.2229 35.8394 23.1458 37.522 23.1458C39.6274 23.1482 41.2764 21.9468 41.5718 20.3673H41.573Z" fill="#06335B"/>
<path d="M69.1414 17.5518C69.1414 23.1482 65.9305 26.8926 61.03 26.8926C59.9428 26.9388 58.8616 26.6994 57.8828 26.1958C56.9041 25.6921 56.0582 24.9399 55.4205 24.0061V33.3468H50.4308V8.21231H55.4251V10.9246C56.0454 9.99656 56.8741 9.24664 57.8364 8.7425C58.7988 8.23835 59.8644 7.99582 60.9373 8.0368C65.8343 8.03803 69.1414 11.8585 69.1414 17.5518ZM64.0822 17.3801C64.0822 14.426 62.3325 12.2967 59.7693 12.2967C57.2061 12.2967 55.4239 14.3904 55.4239 17.3801C55.4239 20.436 57.2061 22.4953 59.7693 22.4953C62.3325 22.4953 64.0822 20.4016 64.0822 17.3801Z" fill="#06335B"/>
<path d="M111.749 7.48941V9.02964H115.866V12.7041H111.749V26.6791H106.789V12.709H104.452V9.03459H106.787V7.28327C106.787 3.16209 109.705 0.964066 113.208 0.964066C114.817 0.93817 116.401 1.39008 117.781 2.26864L115.996 6.11855C115.366 5.61882 114.603 5.34264 113.815 5.3294C113.54 5.30103 113.261 5.33721 113 5.43532C112.739 5.53343 112.502 5.69112 112.305 5.8972C112.108 6.10327 111.956 6.35269 111.86 6.62784C111.764 6.90299 111.726 7.1971 111.749 7.48941Z" fill="#06335B"/>
<path d="M127.346 28.7469C126.115 32.0188 123.973 33.5897 120.959 33.5897C119.227 33.6341 117.54 32.998 116.223 31.804L118.331 27.9909C118.943 28.6129 119.753 28.9686 120.601 28.9874C121.098 28.9963 121.586 28.8428 121.998 28.5477C122.41 28.2525 122.726 27.8301 122.904 27.338L123.39 26.3083L116.16 8.21588H121.315L125.887 20.9194L130.006 8.21588H135L127.346 28.7469Z" fill="#06335B"/>
<path d="M3.9514 1.20331C4.73291 1.20331 5.49687 1.44875 6.14667 1.90861C6.79648 2.36846 7.30294 3.02207 7.60201 3.78678C7.90108 4.55148 7.97933 5.39295 7.82687 6.20476C7.6744 7.01657 7.29807 7.76226 6.74545 8.34754C6.19284 8.93282 5.48877 9.33141 4.72227 9.49289C3.95578 9.65436 3.16129 9.57149 2.43926 9.25473C1.71724 8.93798 1.10012 8.40158 0.66593 7.71336C0.231745 7.02514 0 6.21602 0 5.3883C0 4.27837 0.416307 3.2139 1.15734 2.42906C1.89837 1.64423 2.90342 1.20331 3.9514 1.20331Z" fill="#57CC99"/>
</svg>
