<svg width="148" height="148" viewBox="0 0 148 148" fill="none" xmlns="http://www.w3.org/2000/svg">
<rect width="148" height="148" rx="32.0833" fill="#06335B" fill-opacity="0.26"/>
<g clip-path="url(#clip0_3613_1750)">
<path d="M111.953 62.6863C111.273 63.2045 110.553 63.643 109.793 64.0416L111.953 62.6863Z" stroke="black" stroke-width="1.60417" stroke-miterlimit="10"/>
<path d="M111.953 62.6863L109.753 64.0416" stroke="black" stroke-width="1.60417" stroke-miterlimit="10"/>
<path d="M111.953 62.6863C111.273 63.2045 110.553 63.643 109.793 64.0416L111.953 62.6863Z" stroke="black" stroke-width="1.60417" stroke-miterlimit="10"/>
<path d="M113.193 35.3019V61.6101C112.793 62.0087 112.393 62.3674 111.953 62.6863C111.273 63.2045 110.553 63.643 109.793 64.0416L72.7861 87.0014L35.9795 64.201C35.1794 63.8423 34.4192 63.4038 33.7391 62.8856V35.3019C33.6991 31.6347 36.6996 28.6451 40.4203 28.6451H106.512C110.193 28.6451 113.193 31.6347 113.193 35.3019Z" fill="white"/>
<rect x="45.6532" y="38.3601" width="54.3064" height="5.82896" fill="#ECECEC"/>
<rect x="45.6532" y="50.018" width="54.3064" height="5.82896" fill="#ECECEC"/>
<rect x="45.6532" y="59.7329" width="54.3064" height="5.82896" fill="#ECECEC"/>
<rect x="45.6532" y="69.4478" width="54.3064" height="5.82896" fill="#ECECEC"/>
<path d="M82.7481 93.2197H40.4205C36.7398 93.2197 33.7393 90.2302 33.7393 86.563V62.8856C34.4594 63.4038 35.1796 63.8423 35.9797 64.201L72.7463 87.0014L82.7481 93.2197Z" fill="white"/>
<path d="M33.6996 41.8789V62.8856C33.4995 62.7262 33.2995 62.6066 33.1395 62.4471C30.2189 60.0555 28.3386 56.4282 28.3386 52.4022C28.3386 48.0574 30.459 44.2307 33.6996 41.8789Z" fill="#06233E"/>
<path d="M113.314 61.7892L113.314 61.7894L113.322 61.7819C115.768 59.3855 117.235 56.0552 117.235 52.4022C117.235 48.7835 115.756 45.4841 113.394 43.0949V42.7132C116.877 45.3632 119.114 49.5818 119.114 54.2757V97.3254C119.114 103.086 115.779 108.037 110.953 110.45L80.675 95.4644L68.4457 88.8676L109.866 64.2542C110.642 63.8867 111.373 63.4004 112.057 62.8795C112.397 62.633 112.717 62.3376 113.019 62.0591C113.119 61.9664 113.218 61.8757 113.314 61.7892Z" fill="url(#paint0_linear_3613_1750)" stroke="#06335B" stroke-width="0.48125"/>
<path d="M32.9884 62.6346L32.9893 62.6353C33.0906 62.716 33.1816 62.7866 33.2713 62.8561L33.272 62.8566C33.3621 62.9264 33.4509 62.9952 33.5494 63.0738L33.5492 63.074L33.5589 63.0809C34.2844 63.603 35.0142 64.0483 35.8266 64.414L72.5794 87.2058L72.5796 87.2059L82.5812 93.4241L82.5815 93.4243L110.449 110.689C108.624 111.51 106.6 111.953 104.472 111.953H41.1807C33.0713 111.953 26.4987 105.403 26.4987 97.3254V54.2757C26.4987 49.2239 29.071 44.7529 32.9671 42.139C30.0023 44.5568 28.0978 48.247 28.0978 52.4022C28.0978 56.5437 30.0134 60.2389 32.9884 62.6346Z" fill="url(#paint1_linear_3613_1750)" stroke="#06335B" stroke-width="0.48125"/>
<path d="M117.034 52.4022C117.034 55.9897 115.554 59.2583 113.194 61.6101V43.1545C115.554 45.5063 117.034 48.7749 117.034 52.4022Z" fill="#06233E"/>
<path d="M113.193 35.3019V61.6101C112.793 62.0087 112.393 62.3674 111.953 62.6863C111.273 63.2045 110.553 63.643 109.793 64.0416L72.7861 87.0014L35.9795 64.201C35.1794 63.8423 34.4192 63.4038 33.7391 62.8856V35.3019C33.6991 31.6347 36.6996 28.6451 40.4203 28.6451H106.512C110.193 28.6451 113.193 31.6347 113.193 35.3019Z" fill="url(#paint2_linear_3613_1750)"/>
</g>
<defs>
<linearGradient id="paint0_linear_3613_1750" x1="99.9597" y1="81.1058" x2="75.6995" y2="92.7298" gradientUnits="userSpaceOnUse">
<stop stop-color="#06335B"/>
<stop offset="1" stop-color="#082947"/>
</linearGradient>
<linearGradient id="paint1_linear_3613_1750" x1="24.3185" y1="66.5334" x2="76.839" y2="178.183" gradientUnits="userSpaceOnUse">
<stop stop-color="#06335B"/>
<stop offset="1" stop-color="#062A4A"/>
</linearGradient>
<linearGradient id="paint2_linear_3613_1750" x1="30.1368" y1="94.7066" x2="98.1226" y2="36.5372" gradientUnits="userSpaceOnUse">
<stop stop-opacity="0.22"/>
<stop offset="1" stop-color="white" stop-opacity="0"/>
</linearGradient>
<clipPath id="clip0_3613_1750">
<rect width="93.0968" height="83.5484" fill="white" transform="translate(26.2579 28.6451)"/>
</clipPath>
</defs>
</svg>
