<svg width="57" height="24" viewBox="0 0 57 24" fill="none" xmlns="http://www.w3.org/2000/svg">
<g filter="url(#filter0_d_4614_3162)">
<rect x="3.22394" y="2.13358" width="50.6679" height="17.3718" rx="8.68592" fill="white"/>
</g>
<path d="M8.57616 9.28916C8.56048 9.4188 8.54757 9.54884 8.52862 9.67801C8.48023 10.0078 8.47439 10.3331 8.61391 10.6463C8.66466 10.7602 8.72873 10.8648 8.82279 10.9486C8.95142 11.0631 9.07853 11.0593 9.20133 10.9377C9.38026 10.7604 9.40913 10.5416 9.3775 10.3055C9.34487 10.0616 9.28631 9.82152 9.28786 9.57275C9.29162 8.96902 9.54676 8.48878 10.0032 8.10625C10.088 8.03517 10.1833 7.9764 10.2736 7.91205C10.3273 7.87376 10.382 7.83669 10.4382 7.80207C10.761 7.60327 10.8487 7.30993 10.7841 6.95815C10.7579 6.81534 10.7217 6.67432 10.6894 6.53263C10.6784 6.48412 10.6902 6.46126 10.741 6.48763C11.0191 6.63199 11.308 6.75934 11.5195 7.00452C12.0536 7.6237 11.5713 8.46267 11.6355 9.17327C11.6436 9.27243 11.6644 9.37014 11.6972 9.46405C11.8064 9.76791 12.1723 10.1306 12.5139 9.92788C12.73 9.7996 12.8445 9.51875 12.902 9.28596C12.962 9.03403 12.967 8.77216 12.9169 8.51809C12.912 8.49271 12.9068 8.4684 12.9013 8.44516C12.8987 8.43394 12.8998 8.42217 12.9045 8.41167C12.9093 8.40117 12.9173 8.39251 12.9275 8.38704C12.9376 8.38157 12.9492 8.37959 12.9606 8.38141C12.972 8.38323 12.9825 8.38874 12.9904 8.3971C13.29 8.71245 13.751 9.27177 14.0067 9.98628C14.1024 10.2633 14.1742 10.5479 14.2213 10.8371C14.2669 11.1258 14.2855 11.4181 14.277 11.7102C14.2688 11.9986 14.2315 12.2855 14.1658 12.5664C14.1011 12.8432 14.0051 13.1117 13.8796 13.3667C13.7543 13.621 13.5966 13.8581 13.4106 14.0721C13.2181 14.2922 12.9959 14.4844 12.7505 14.6434C12.6918 14.6814 12.6319 14.7175 12.5708 14.7517C11.0071 15.6276 8.918 15.0557 8.04728 13.4817C7.40788 12.3257 7.35424 10.7792 8.20775 9.71206C8.32254 9.56852 8.43343 9.42189 8.54613 9.27671L8.57616 9.28916Z" fill="#FFE966"/>
<path d="M10.7841 6.95816C10.7924 7.00265 10.7981 7.04755 10.8014 7.09268C11.2233 7.70178 10.7879 8.49585 10.849 9.17328C10.8572 9.27244 10.8779 9.37015 10.9108 9.46405C11.02 9.76792 11.3859 10.1306 11.7275 9.92789C11.7918 9.88853 11.8484 9.83772 11.8944 9.77797C11.8083 9.68761 11.7412 9.58085 11.6972 9.46405C11.6644 9.37015 11.6436 9.27243 11.6355 9.17328C11.5713 8.46268 12.0536 7.62371 11.5195 7.00453C11.308 6.75935 11.0191 6.632 10.741 6.48764C10.6902 6.46125 10.6784 6.48413 10.6895 6.53264C10.7217 6.67432 10.7579 6.81534 10.7841 6.95816ZM14.2213 10.8371C14.1742 10.5479 14.1024 10.2633 14.0068 9.98629C13.751 9.27178 13.29 8.71245 12.9904 8.3971C12.9825 8.38874 12.972 8.38322 12.9606 8.3814C12.9493 8.37958 12.9376 8.38155 12.9275 8.38702C12.9173 8.39249 12.9093 8.40115 12.9045 8.41166C12.8998 8.42217 12.8987 8.43395 12.9013 8.44517C12.9068 8.46837 12.912 8.49268 12.917 8.5181C12.9671 8.77217 12.962 9.03403 12.9021 9.28597C12.9005 9.29235 12.8987 9.29888 12.897 9.30531C13.0262 9.52149 13.1345 9.74952 13.2203 9.98629C13.316 10.2633 13.3878 10.5479 13.4348 10.8372C13.4805 11.1258 13.4991 11.4181 13.4905 11.7102C13.4824 11.9986 13.4451 12.2855 13.3793 12.5664C13.3147 12.8432 13.2187 13.1117 13.0932 13.3667C12.9678 13.621 12.8102 13.8581 12.6241 14.0721C12.4316 14.2922 12.2095 14.4844 11.964 14.6434C11.9053 14.6814 11.8455 14.7175 11.7844 14.7517C11.4127 14.9591 11.0036 15.0909 10.5807 15.1394C11.2545 15.2175 11.9536 15.0975 12.5708 14.7517C12.6319 14.7176 12.6918 14.6815 12.7505 14.6434C12.9959 14.4844 13.2181 14.2922 13.4106 14.0721C13.5966 13.8581 13.7543 13.621 13.8796 13.3667C14.0051 13.1117 14.1011 12.8432 14.1658 12.5664C14.2316 12.2855 14.2688 11.9986 14.277 11.7102C14.2856 11.4181 14.2669 11.1258 14.2213 10.8371ZM7.82746 10.6463C7.87823 10.7602 7.9423 10.8648 8.03636 10.9486C8.16499 11.0631 8.29209 11.0593 8.41488 10.9377C8.50987 10.8452 8.57201 10.7243 8.59185 10.5932C8.48965 10.3329 8.48303 10.0644 8.51377 9.79239C8.50546 9.71948 8.50134 9.64615 8.50143 9.57276C8.50189 9.48513 8.50804 9.39762 8.51985 9.31078C8.41616 9.44481 8.31361 9.57973 8.20777 9.71205C8.02161 9.94552 7.87356 10.207 7.7691 10.4867C7.785 10.5411 7.8045 10.5944 7.82748 10.6463L7.82746 10.6463Z" fill="#FFE236"/>
<path d="M9.22596 12.1595C9.27042 12.2938 9.31387 12.4285 9.35959 12.5624C9.44129 12.8016 9.57207 13.0075 9.78144 13.1562C9.92978 13.2615 10.093 13.3214 10.2793 13.315C10.5838 13.3047 10.7751 13.0744 10.729 12.7745C10.6914 12.5303 10.5912 12.3087 10.493 12.0859C10.3616 11.7879 10.2237 11.4932 10.1388 11.1766C9.97641 10.5711 10.1351 10.0602 10.5824 9.63085C10.6692 9.54755 10.7613 9.46971 10.8521 9.39075C10.8724 9.3731 10.8909 9.33808 10.9214 9.35066C10.953 9.36368 10.9391 9.40113 10.9388 9.42756C10.9368 9.62683 10.9389 9.82596 10.9678 10.0235C11.0311 10.4573 11.2419 10.8203 11.5174 11.152C11.7624 11.447 12.0424 11.7101 12.2933 11.9998C12.5333 12.2768 12.7351 12.5756 12.8739 12.9178C13.0647 13.3883 13.0028 13.8289 12.7366 14.2473C12.448 14.7006 12.0275 14.9721 11.5078 15.0912C10.8717 15.2371 10.2608 15.1652 9.70404 14.817C9.1274 14.4563 8.81888 13.9334 8.83534 13.2423C8.84083 13.0125 8.90008 12.7922 8.99438 12.5825C9.05882 12.4392 9.129 12.2985 9.19662 12.1567L9.22596 12.1595Z" fill="#FFC166"/>
<path d="M8.99507 13.1562C9.14341 13.2615 9.3066 13.3214 9.49291 13.3151C9.62875 13.3104 9.74195 13.262 9.82169 13.1832C9.80809 13.1745 9.7947 13.1655 9.78152 13.1562C9.57215 13.0075 9.44138 12.8017 9.35966 12.5624C9.31394 12.4285 9.2705 12.2938 9.22604 12.1595L9.19668 12.1567C9.12908 12.2985 9.05889 12.4393 8.99444 12.5825C8.92815 12.7271 8.88116 12.8798 8.85468 13.0366C8.89787 13.0805 8.94484 13.1205 8.99507 13.1562ZM12.8739 12.9179C12.7351 12.5757 12.5334 12.2768 12.2934 11.9998C12.0425 11.7101 11.7625 11.447 11.5174 11.152C11.242 10.8203 11.0312 10.4573 10.9678 10.0235C10.939 9.82599 10.9369 9.62684 10.9389 9.42759C10.9391 9.40116 10.953 9.36371 10.9215 9.35069C10.891 9.33811 10.8725 9.37315 10.8522 9.39078C10.7613 9.46972 10.6693 9.54758 10.5825 9.63088C10.4156 9.79109 10.2889 9.96267 10.204 10.1463C10.2862 10.5265 10.4819 10.8521 10.731 11.152C10.976 11.447 11.256 11.7101 11.507 11.9998C11.7469 12.2768 11.9487 12.5757 12.0875 12.9179C12.2783 13.3883 12.2165 13.8289 11.9502 14.2473C11.6617 14.7007 11.2411 14.9721 10.7215 15.0913C10.6534 15.1068 10.5857 15.1199 10.5183 15.1303C10.8381 15.1848 11.1694 15.1688 11.5079 15.0913C12.0276 14.9721 12.4481 14.7007 12.7366 14.2473C13.0029 13.8289 13.0648 13.3883 12.8739 12.9179V12.9179Z" fill="#FFB74E"/>
<path d="M21.9968 9.75565C21.9968 8.71565 21.3265 8.08394 20.1787 8.08394H17.9754V13.4765H18.6534V11.4196H20.1787C21.3265 11.4196 21.9968 10.7956 21.9968 9.75565ZM21.288 9.75565C21.288 10.4875 20.9491 10.8033 20.1248 10.8033H18.6534V8.70794H20.1248C20.9491 8.70794 21.288 9.02379 21.288 9.75565ZM22.6609 11.5275C22.6454 12.6291 23.4852 13.6075 24.6638 13.5844C25.8425 13.6075 26.6822 12.6291 26.6668 11.5275C26.6822 10.4259 25.8425 9.4475 24.6638 9.47061C23.4852 9.4475 22.6454 10.4259 22.6609 11.5275ZM25.9889 11.5275C25.9889 11.9512 25.8656 12.3056 25.6191 12.5752C25.3803 12.8448 25.0567 12.9835 24.6638 12.9835C24.2709 12.9835 23.9474 12.8448 23.7009 12.5752C23.462 12.3056 23.3388 11.9512 23.3388 11.5275C23.3388 11.1038 23.462 10.7494 23.7009 10.4798C23.9474 10.2102 24.2709 10.0715 24.6638 10.0715C25.0567 10.0715 25.3803 10.2102 25.6191 10.4798C25.8656 10.7494 25.9889 11.1038 25.9889 11.5275ZM31.7199 11.5275C31.7199 10.3257 30.9341 9.47061 29.871 9.47061C29.2162 9.47061 28.6615 9.79416 28.4227 10.2949V9.57846H27.7756V15.0173H28.4227V12.7601C28.6615 13.2608 29.2162 13.5844 29.871 13.5844C30.9341 13.5844 31.7199 12.7293 31.7199 11.5275ZM31.0419 11.5275C31.0419 11.9512 30.9187 12.3056 30.6722 12.5752C30.4333 12.8448 30.1098 12.9835 29.7169 12.9835C29.324 12.9835 29.0005 12.8448 28.7539 12.5752C28.5151 12.3056 28.3919 11.9512 28.3919 11.5275C28.3919 11.1038 28.5151 10.7494 28.7539 10.4798C29.0005 10.2102 29.324 10.0715 29.7169 10.0715C30.1098 10.0715 30.4333 10.2102 30.6722 10.4798C30.9187 10.7494 31.0419 11.1038 31.0419 11.5275ZM32.7541 12.0205C32.7541 12.945 33.4243 13.5844 34.4335 13.5844C35.4427 13.5844 36.1129 12.945 36.1129 12.0205V9.57846H35.4658V11.982C35.4658 12.6291 35.0883 12.9835 34.4335 12.9835C33.7787 12.9835 33.4012 12.6291 33.4012 11.982V9.57846H32.7541V12.0205ZM37.4202 13.4765H38.0674V7.83742H37.4202V13.4765ZM42.4713 9.57846V10.2949C42.2479 9.79416 41.6856 9.47061 41.0307 9.47061C39.9599 9.47061 39.1742 10.3257 39.1742 11.5275C39.1742 12.7293 39.9599 13.5844 41.0307 13.5844C41.6856 13.5844 42.2479 13.2608 42.4713 12.7601V13.4765H43.1185V9.57846H42.4713ZM42.5022 11.5275C42.5022 11.9512 42.3789 12.3056 42.1324 12.5752C41.8936 12.8448 41.57 12.9835 41.1771 12.9835C40.7842 12.9835 40.4607 12.8448 40.2142 12.5752C39.9753 12.3056 39.8521 11.9512 39.8521 11.5275C39.8521 11.1038 39.9753 10.7494 40.2142 10.4798C40.4607 10.2102 40.7842 10.0715 41.1771 10.0715C41.57 10.0715 41.8936 10.2102 42.1324 10.4798C42.3789 10.7494 42.5022 11.1038 42.5022 11.5275ZM46.6949 9.57076C46.5947 9.53224 46.4715 9.51683 46.3405 9.51683C45.7627 9.51683 45.3313 9.80957 45.1542 10.3103V9.57846H44.507V13.4765H45.1542V11.4813C45.1542 10.5645 45.5933 10.1177 46.3559 10.1177C46.4715 10.1177 46.5793 10.1254 46.6949 10.1408V9.57076Z" fill="black"/>
<defs>
<filter id="filter0_d_4614_3162" x="0.328631" y="0.685922" width="56.4585" height="23.1625" filterUnits="userSpaceOnUse" color-interpolation-filters="sRGB">
<feFlood flood-opacity="0" result="BackgroundImageFix"/>
<feColorMatrix in="SourceAlpha" type="matrix" values="0 0 0 0 0 0 0 0 0 0 0 0 0 0 0 0 0 0 127 0" result="hardAlpha"/>
<feOffset dy="1.44765"/>
<feGaussianBlur stdDeviation="1.44765"/>
<feComposite in2="hardAlpha" operator="out"/>
<feColorMatrix type="matrix" values="0 0 0 0 0 0 0 0 0 0 0 0 0 0 0 0 0 0 0.15 0"/>
<feBlend mode="normal" in2="BackgroundImageFix" result="effect1_dropShadow_4614_3162"/>
<feBlend mode="normal" in="SourceGraphic" in2="effect1_dropShadow_4614_3162" result="shape"/>
</filter>
</defs>
</svg>
