<svg width="23" height="27" viewBox="0 0 23 27" fill="none" xmlns="http://www.w3.org/2000/svg">
<path d="M11.3207 15.6648H1.69482C1.67804 15.6648 1.66965 15.6648 1.66684 15.6594C1.66404 15.654 1.66882 15.6472 1.6784 15.6334L1.6784 15.6334L11.3042 1.77218C11.3192 1.75067 11.3266 1.73992 11.3336 1.74212C11.3407 1.74431 11.3407 1.7574 11.3407 1.78359V10.9964C11.3407 11.0059 11.3407 11.0106 11.3436 11.0135C11.3465 11.0164 11.3512 11.0164 11.3607 11.0164H20.9865C21.0033 11.0164 21.0117 11.0164 21.0145 11.0218C21.0173 11.0272 21.0125 11.0341 21.0029 11.0478L11.3771 24.909C11.3621 24.9305 11.3547 24.9413 11.3477 24.9391C11.3407 24.9369 11.3407 24.9238 11.3407 24.8976V15.6848C11.3407 15.6754 11.3407 15.6706 11.3377 15.6677C11.3348 15.6648 11.3301 15.6648 11.3207 15.6648Z" stroke="#06335B" stroke-width="3"/>
</svg>
