<svg width="55" height="9" viewBox="0 0 55 9" fill="none" xmlns="http://www.w3.org/2000/svg">
<path d="M26.2691 1.91249C26.676 0.996099 26.8794 0.537903 27.2293 0.537903C27.5791 0.537903 27.7826 0.996099 28.1894 1.91249L28.2084 1.95516C28.4382 2.47288 28.5532 2.73174 28.7874 2.88908C29.0217 3.04641 29.3292 3.07129 29.9441 3.12105L30.0553 3.13005C31.0618 3.21148 31.565 3.2522 31.6727 3.54145C31.7804 3.83071 31.4067 4.13789 30.6592 4.75226L30.4098 4.9573C30.0314 5.2683 29.8422 5.4238 29.754 5.62761C29.7376 5.66563 29.7239 5.70458 29.7131 5.74421C29.6551 5.95668 29.7105 6.18226 29.8213 6.63344L29.8558 6.77387C30.0594 7.60303 30.1612 8.01762 29.9835 8.19644C29.917 8.26326 29.8307 8.31137 29.7348 8.33501C29.4781 8.39829 29.1137 8.13003 28.3849 7.59351C27.9064 7.24122 27.6671 7.06507 27.3924 7.02544C27.2843 7.00986 27.1742 7.00986 27.0662 7.02544C26.7914 7.06507 26.5522 7.24122 26.0736 7.59351C25.3448 8.13003 24.9804 8.39829 24.7238 8.33501C24.6278 8.31137 24.5415 8.26326 24.4751 8.19644C24.2973 8.01762 24.3991 7.60303 24.6028 6.77387L24.6372 6.63344C24.748 6.18226 24.8035 5.95668 24.7455 5.74421C24.7347 5.70458 24.721 5.66563 24.7046 5.62761C24.6164 5.4238 24.4272 5.2683 24.0488 4.9573L23.7993 4.75226C23.0519 4.13789 22.6781 3.83071 22.7858 3.54145C22.8935 3.2522 23.3968 3.21148 24.4032 3.13005L24.5144 3.12105C25.1294 3.07129 25.4369 3.04641 25.6711 2.88908C25.9054 2.73174 26.0203 2.47288 26.2502 1.95516L26.2691 1.91249Z" fill="#FBBC05"/>
<path d="M37.5756 1.91249C37.9824 0.996099 38.1859 0.537903 38.5357 0.537903C38.8855 0.537903 39.089 0.996099 39.4959 1.91249L39.5148 1.95516C39.7447 2.47288 39.8596 2.73174 40.0938 2.88908C40.3281 3.04641 40.6356 3.07129 41.2506 3.12105L41.3617 3.13005C42.3682 3.21148 42.8715 3.2522 42.9792 3.54145C43.0868 3.83071 42.7131 4.13789 41.9656 4.75226L41.7162 4.9573C41.3378 5.2683 41.1486 5.4238 41.0604 5.62761C41.044 5.66563 41.0303 5.70458 41.0195 5.74421C40.9615 5.95668 41.0169 6.18226 41.1277 6.63344L41.1622 6.77387C41.3659 7.60303 41.4677 8.01762 41.2899 8.19644C41.2235 8.26326 41.1371 8.31137 41.0412 8.33501C40.7846 8.39829 40.4202 8.13003 39.6914 7.59351C39.2128 7.24122 38.9735 7.06507 38.6988 7.02544C38.5908 7.00986 38.4806 7.00986 38.3726 7.02544C38.0979 7.06507 37.8586 7.24122 37.38 7.59351C36.6512 8.13003 36.2868 8.39829 36.0302 8.33501C35.9343 8.31137 35.8479 8.26326 35.7815 8.19644C35.6037 8.01762 35.7056 7.60303 35.9092 6.77387L35.9437 6.63344C36.0545 6.18226 36.1099 5.95668 36.0519 5.74421C36.0411 5.70458 36.0274 5.66563 36.011 5.62761C35.9228 5.4238 35.7336 5.2683 35.3552 4.9573L35.1058 4.75226C34.3583 4.13789 33.9846 3.83071 34.0923 3.54145C34.1999 3.2522 34.7032 3.21148 35.7097 3.13005L35.8209 3.12105C36.4358 3.07129 36.7433 3.04641 36.9776 2.88908C37.2118 2.73174 37.3267 2.47288 37.5566 1.95516L37.5756 1.91249Z" fill="#FBBC05" fill-opacity="0.5"/>
<path d="M48.882 1.91249C49.2889 0.996099 49.4923 0.537903 49.8421 0.537903C50.192 0.537903 50.3954 0.996099 50.8023 1.91249L50.8212 1.95516C51.0511 2.47288 51.166 2.73174 51.4003 2.88908C51.6345 3.04641 51.942 3.07129 52.557 3.12105L52.6682 3.13005C53.6747 3.21148 54.1779 3.2522 54.2856 3.54145C54.3933 3.83071 54.0195 4.13789 53.2721 4.75226L53.0226 4.9573C52.6442 5.2683 52.455 5.4238 52.3669 5.62761C52.3504 5.66563 52.3367 5.70458 52.3259 5.74421C52.268 5.95668 52.3234 6.18226 52.4342 6.63344L52.4687 6.77387C52.6723 7.60303 52.7741 8.01762 52.5963 8.19644C52.5299 8.26326 52.4436 8.31137 52.3477 8.33501C52.091 8.39829 51.7266 8.13003 50.9978 7.59351C50.5192 7.24122 50.28 7.06507 50.0052 7.02544C49.8972 7.00986 49.7871 7.00986 49.679 7.02544C49.4043 7.06507 49.165 7.24122 48.6865 7.59351C47.9577 8.13003 47.5933 8.39829 47.3366 8.33501C47.2407 8.31137 47.1544 8.26326 47.0879 8.19644C46.9102 8.01762 47.012 7.60303 47.2156 6.77387L47.2501 6.63344C47.3609 6.18226 47.4163 5.95668 47.3583 5.74421C47.3475 5.70458 47.3339 5.66563 47.3174 5.62761C47.2292 5.4238 47.04 5.2683 46.6617 4.9573L46.4122 4.75226C45.6647 4.13789 45.291 3.83071 45.3987 3.54145C45.5064 3.2522 46.0096 3.21148 47.0161 3.13005L47.1273 3.12105C47.7423 3.07129 48.0497 3.04641 48.284 2.88908C48.5182 2.73174 48.6332 2.47288 48.863 1.95516L48.882 1.91249Z" fill="#FBBC05" fill-opacity="0.5"/>
<path d="M14.9629 1.91249C15.3697 0.996099 15.5732 0.537903 15.923 0.537903C16.2729 0.537903 16.4763 0.996099 16.8832 1.91249L16.9021 1.95516C17.132 2.47288 17.2469 2.73174 17.4812 2.88908C17.7154 3.04641 18.0229 3.07129 18.6379 3.12105L18.7491 3.13005C19.7555 3.21148 20.2588 3.2522 20.3665 3.54145C20.4742 3.83071 20.1004 4.13789 19.353 4.75226L19.1035 4.9573C18.7251 5.2683 18.5359 5.4238 18.4477 5.62761C18.4313 5.66563 18.4176 5.70458 18.4068 5.74421C18.3488 5.95668 18.4043 6.18226 18.5151 6.63344L18.5495 6.77387C18.7532 7.60303 18.855 8.01762 18.6772 8.19644C18.6108 8.26326 18.5245 8.31137 18.4285 8.33501C18.1719 8.39829 17.8075 8.13003 17.0787 7.59351C16.6001 7.24122 16.3609 7.06507 16.0861 7.02544C15.9781 7.00986 15.868 7.00986 15.7599 7.02544C15.4852 7.06507 15.2459 7.24122 14.7674 7.59351C14.0386 8.13003 13.6742 8.39829 13.4175 8.33501C13.3216 8.31137 13.2353 8.26326 13.1688 8.19644C12.9911 8.01762 13.0929 7.60303 13.2965 6.77387L13.331 6.63344C13.4418 6.18226 13.4972 5.95668 13.4392 5.74421C13.4284 5.70458 13.4147 5.66563 13.3983 5.62761C13.3101 5.4238 13.1209 5.2683 12.7425 4.9573L12.4931 4.75226C11.7456 4.13789 11.3719 3.83071 11.4796 3.54145C11.5873 3.2522 12.0905 3.21148 13.097 3.13005L13.2082 3.12105C13.8231 3.07129 14.1306 3.04641 14.3649 2.88908C14.5991 2.73174 14.7141 2.47288 14.9439 1.95516L14.9629 1.91249Z" fill="#FBBC05"/>
<path d="M3.65642 1.91249C4.0633 0.996099 4.26674 0.537903 4.61658 0.537903C4.96641 0.537903 5.16985 0.996099 5.57673 1.91249L5.59568 1.95516C5.82555 2.47288 5.94048 2.73174 6.17472 2.88908C6.40896 3.04641 6.71645 3.07129 7.33143 3.12105L7.44261 3.13005C8.4491 3.21148 8.95235 3.2522 9.06003 3.54145C9.16771 3.83071 8.79398 4.13789 8.04652 4.75226L7.79705 4.9573C7.41867 5.2683 7.22948 5.4238 7.1413 5.62761C7.12486 5.66563 7.11118 5.70458 7.10037 5.74421C7.04241 5.95668 7.09781 6.18226 7.20861 6.63344L7.2431 6.77387C7.44673 7.60303 7.54855 8.01762 7.37077 8.19644C7.30435 8.26326 7.21801 8.31137 7.1221 8.33501C6.86544 8.39829 6.50104 8.13003 5.77224 7.59351C5.29369 7.24122 5.05441 7.06507 4.77969 7.02544C4.67163 7.00986 4.56152 7.00986 4.45346 7.02544C4.17874 7.06507 3.93947 7.24122 3.46091 7.59351C2.73212 8.13003 2.36772 8.39829 2.11105 8.33501C2.01515 8.31137 1.92881 8.26326 1.86238 8.19644C1.68461 8.01762 1.78643 7.60303 1.99006 6.77387L2.02455 6.63344C2.13535 6.18226 2.19075 5.95668 2.13279 5.74421C2.12198 5.70458 2.1083 5.66563 2.09185 5.62761C2.00367 5.4238 1.81448 5.2683 1.4361 4.9573L1.18664 4.75226C0.439175 4.13789 0.065443 3.83071 0.173126 3.54145C0.280808 3.2522 0.784054 3.21148 1.79055 3.13005L1.90172 3.12105C2.5167 3.07129 2.82419 3.04641 3.05843 2.88908C3.29268 2.73174 3.40761 2.47288 3.63748 1.95516L3.65642 1.91249Z" fill="#FBBC05"/>
</svg>
