<svg width="148" height="148" viewBox="0 0 148 148" fill="none" xmlns="http://www.w3.org/2000/svg">
<path d="M0 35C0 15.67 15.67 0 35 0H113C132.33 0 148 15.67 148 35V113C148 132.33 132.33 148 113 148H35C15.67 148 0 132.33 0 113V35Z" fill="#06335B" fill-opacity="0.26"/>
<path d="M42.6672 36.0269L45.7031 32.9909C47.6364 31.0577 50.7708 31.0577 52.7041 32.9909L65.5048 45.7917C67.4381 47.7249 67.4381 50.8594 65.5048 52.7926L56.6316 61.6658C55.152 63.1454 54.7852 65.4058 55.721 67.2774C61.1306 78.0966 69.9034 86.8694 80.7226 92.279C82.5942 93.2148 84.8546 92.848 86.3342 91.3684L95.2074 82.4952C97.1406 80.5619 100.275 80.5619 102.208 82.4952L115.009 95.2959C116.942 97.2292 116.942 100.364 115.009 102.297L111.973 105.333C101.521 115.785 84.9739 116.961 73.1487 108.092L67.1666 103.605C58.5354 97.132 50.868 89.4646 44.3946 80.8334L39.908 74.8513C31.0391 63.0261 32.2151 46.479 42.6672 36.0269Z" fill="#06335B"/>
<path d="M42.6672 36.0269L45.7031 32.9909C47.6364 31.0577 50.7708 31.0577 52.7041 32.9909L65.5048 45.7917C67.4381 47.7249 67.4381 50.8594 65.5048 52.7926L56.6316 61.6658C55.152 63.1454 54.7852 65.4058 55.721 67.2774C61.1306 78.0966 69.9034 86.8694 80.7226 92.279C82.5942 93.2148 84.8546 92.848 86.3342 91.3684L95.2074 82.4952C97.1406 80.5619 100.275 80.5619 102.208 82.4952L115.009 95.2959C116.942 97.2292 116.942 100.364 115.009 102.297L111.973 105.333C101.521 115.785 84.9739 116.961 73.1487 108.092L67.1666 103.605C58.5354 97.132 50.868 89.4646 44.3946 80.8334L39.908 74.8513C31.0391 63.0261 32.2151 46.479 42.6672 36.0269Z" fill="url(#paint0_linear_3613_1801)"/>
<defs>
<linearGradient id="paint0_linear_3613_1801" x1="163.46" y1="-57.6653" x2="8.06862" y2="84.2974" gradientUnits="userSpaceOnUse">
<stop stop-opacity="0"/>
<stop offset="1" stop-opacity="0.21"/>
</linearGradient>
</defs>
</svg>
