<svg width="28" height="25" viewBox="0 0 28 25" fill="none" xmlns="http://www.w3.org/2000/svg">
<path d="M4.14251 13.9115L13.2208 22.5071C13.5336 22.8032 13.6899 22.9512 13.8743 22.9877C13.9573 23.0041 14.0427 23.0041 14.1257 22.9877C14.3101 22.9512 14.4664 22.8032 14.7792 22.5071L23.8575 13.9115C26.4118 11.4931 26.7219 7.51333 24.5737 4.72257L24.1697 4.19782C21.5998 0.859272 16.4413 1.41917 14.6355 5.23265C14.3804 5.77133 13.6196 5.77133 13.3645 5.23266C11.5587 1.41917 6.4002 0.859277 3.83026 4.19783L3.42632 4.72257C1.27806 7.51333 1.58824 11.4931 4.14251 13.9115Z" stroke="#06335B" stroke-width="3"/>
</svg>
