<svg width="64" height="24" viewBox="0 0 64 24" fill="none" xmlns="http://www.w3.org/2000/svg">
<g filter="url(#filter0_d_4614_3065)">
<rect x="2.92419" y="2.13358" width="57.9061" height="17.3718" rx="8.68592" fill="white"/>
</g>
<path d="M12.4686 5.39177C12.7123 4.9079 13.4031 4.9079 13.6469 5.39177L14.3015 6.69114C14.4485 6.98299 14.7871 7.12322 15.0974 7.02081L16.4791 6.56489C16.9936 6.39512 17.4821 6.8836 17.3123 7.39812L16.8564 8.77978C16.754 9.09012 16.8942 9.42866 17.186 9.57569L18.4854 10.2303C18.9693 10.4741 18.9693 11.1649 18.4854 11.4086L17.186 12.0633C16.8942 12.2103 16.754 12.5488 16.8564 12.8592L17.3123 14.2408C17.4821 14.7553 16.9936 15.2438 16.4791 15.074L15.0974 14.6181C14.7871 14.5157 14.4485 14.6559 14.3015 14.9478L13.6469 16.2472C13.4031 16.7311 12.7123 16.7311 12.4686 16.2472L11.814 14.9478C11.6669 14.6559 11.3284 14.5157 11.0181 14.6181L9.6364 15.074C9.12188 15.2438 8.6334 14.7553 8.80318 14.2408L9.2591 12.8592C9.3615 12.5488 9.22127 12.2103 8.92942 12.0633L7.63005 11.4086C7.14618 11.1649 7.14618 10.4741 7.63005 10.2303L8.92942 9.57569C9.22127 9.42866 9.3615 9.09012 9.2591 8.77978L8.80318 7.39812C8.6334 6.8836 9.12188 6.39512 9.6364 6.56489L11.0181 7.02081C11.3284 7.12322 11.6669 6.98299 11.814 6.69114L12.4686 5.39177Z" fill="#57CC99"/>
<path d="M11.2255 10.9664L12.5449 12.2859L15.1838 9.64697" stroke="white" stroke-width="0.989581" stroke-linecap="round" stroke-linejoin="round"/>
<path d="M26.2118 7.36013L24.4169 11.9361L22.6219 7.36013H21.9132L24.0702 12.7527H24.7635L26.9206 7.36013H26.2118ZM30.8172 11.004C30.8326 10.8884 30.8403 10.7729 30.8403 10.6573C30.8403 9.52487 30.0699 8.74679 28.9837 8.74679C27.8359 8.74679 27.0347 9.61731 27.0347 10.8114C27.0347 12.0209 27.859 12.8606 29.0376 12.8606C29.7541 12.8606 30.355 12.5524 30.7325 12.0209L30.2933 11.6511C29.9698 12.0594 29.5538 12.2597 29.053 12.2597C28.2904 12.2597 27.7665 11.782 27.6972 11.004H30.8172ZM27.7126 10.4801C27.8282 9.77909 28.2981 9.34768 28.9837 9.34768C29.6616 9.34768 30.1162 9.76368 30.1778 10.4801H27.7126ZM34.1191 8.84694C34.0189 8.80842 33.8957 8.79301 33.7647 8.79301C33.1869 8.79301 32.7555 9.08575 32.5783 9.5865V8.85464H31.9312V12.7527H32.5783V10.7575C32.5783 9.84072 33.0174 9.3939 33.7801 9.3939C33.8957 9.3939 34.0035 9.40161 34.1191 9.41701V8.84694ZM34.9302 7.59124C34.9302 7.84546 35.1228 8.03805 35.3771 8.03805C35.6313 8.03805 35.8239 7.84546 35.8239 7.59124C35.8239 7.33702 35.6313 7.14442 35.3771 7.14442C35.1228 7.14442 34.9302 7.33702 34.9302 7.59124ZM35.0535 12.7527H35.7006V8.85464H35.0535V12.7527ZM37.4002 12.7527H38.0474V9.40931H39.1875V8.85464H38.0474V8.27687C38.0474 7.80694 38.24 7.60664 38.6945 7.60664C38.8485 7.60664 39.018 7.62205 39.2029 7.66057V7.11361C39.0026 7.06739 38.8023 7.04427 38.6097 7.04427C37.7854 7.04427 37.4002 7.42176 37.4002 8.26146V8.85464H36.5991V9.40931H37.4002V12.7527ZM39.9181 7.59124C39.9181 7.84546 40.1107 8.03805 40.3649 8.03805C40.6191 8.03805 40.8117 7.84546 40.8117 7.59124C40.8117 7.33702 40.6191 7.14442 40.3649 7.14442C40.1107 7.14442 39.9181 7.33702 39.9181 7.59124ZM40.0414 12.7527H40.6885V8.85464H40.0414V12.7527ZM45.5851 11.004C45.6005 10.8884 45.6082 10.7729 45.6082 10.6573C45.6082 9.52487 44.8379 8.74679 43.7516 8.74679C42.6038 8.74679 41.8026 9.61731 41.8026 10.8114C41.8026 12.0209 42.6269 12.8606 43.8056 12.8606C44.522 12.8606 45.1229 12.5524 45.5004 12.0209L45.0613 11.6511C44.7377 12.0594 44.3217 12.2597 43.821 12.2597C43.0583 12.2597 42.5345 11.782 42.4651 11.004H45.5851ZM42.4805 10.4801C42.5961 9.77909 43.066 9.34768 43.7516 9.34768C44.4296 9.34768 44.8841 9.76368 44.9457 10.4801H42.4805ZM49.719 7.11361V9.57109C49.4802 9.07035 48.9255 8.74679 48.2707 8.74679C47.2076 8.74679 46.4218 9.6019 46.4218 10.8037C46.4218 12.0055 47.2076 12.8606 48.2707 12.8606C48.9255 12.8606 49.4802 12.537 49.719 12.0363V12.7527H50.3661V7.11361H49.719ZM49.7498 10.8037C49.7498 11.2274 49.6266 11.5818 49.38 11.8514C49.1412 12.121 48.8177 12.2597 48.4248 12.2597C48.0319 12.2597 47.7083 12.121 47.4618 11.8514C47.223 11.5818 47.0997 11.2274 47.0997 10.8037C47.0997 10.38 47.223 10.0256 47.4618 9.75598C47.7083 9.48635 48.0319 9.34768 48.4248 9.34768C48.8177 9.34768 49.1412 9.48635 49.38 9.75598C49.6266 10.0256 49.7498 10.38 49.7498 10.8037Z" fill="black"/>
<defs>
<filter id="filter0_d_4614_3065" x="0.0288875" y="0.685922" width="63.6967" height="23.1625" filterUnits="userSpaceOnUse" color-interpolation-filters="sRGB">
<feFlood flood-opacity="0" result="BackgroundImageFix"/>
<feColorMatrix in="SourceAlpha" type="matrix" values="0 0 0 0 0 0 0 0 0 0 0 0 0 0 0 0 0 0 127 0" result="hardAlpha"/>
<feOffset dy="1.44765"/>
<feGaussianBlur stdDeviation="1.44765"/>
<feComposite in2="hardAlpha" operator="out"/>
<feColorMatrix type="matrix" values="0 0 0 0 0 0 0 0 0 0 0 0 0 0 0 0 0 0 0.15 0"/>
<feBlend mode="normal" in2="BackgroundImageFix" result="effect1_dropShadow_4614_3065"/>
<feBlend mode="normal" in="SourceGraphic" in2="effect1_dropShadow_4614_3065" result="shape"/>
</filter>
</defs>
</svg>
